/* XPM */
static const char *align_horizontally_16_xpm[]={
"16 15 3 1",
"# c #000000",
"d c #ffffff",
". c None",
"................",
"................",
".#######........",
".#ddddd#........",
".#ddddd#..#####.",
".#ddddd#..#ddd#.",
".#ddddd#..#ddd#.",
"################",
".#ddddd#..#ddd#.",
".#ddddd#..#ddd#.",
".#ddddd#..#####.",
".#ddddd#........",
".#######........",
"................",
"................"};
