/* XPM */
static const char *align_vertically_16_xpm[]={
"16 15 3 1",
"# c #000000",
"d c #ffffff",
". c None",
"........#.......",
"...###########..",
"...#dddd#dddd#..",
"...#dddd#dddd#..",
"...#dddd#dddd#..",
"...#dddd#dddd#..",
"...#dddd#dddd#..",
"...###########..",
"........#.......",
".....#######....",
".....#dd#dd#....",
".....#dd#dd#....",
".....#dd#dd#....",
".....#######....",
"........#......."};
