/* XPM */
static const char *align_to_bottom_16_xpm[]={
"16 15 4 1",
"# c #000000",
"a c #0000ff",
"d c #ffffff",
". c None",
"....a.......a...",
"....a.......a...",
"....a.......a...",
"...aaa......a...",
"....a.......a...",
"...........aaa..",
".#######....a...",
".#ddddd#........",
".#ddddd#..#####.",
".#ddddd#..#ddd#.",
".#ddddd#..#ddd#.",
".#ddddd#..#ddd#.",
".#######..#####.",
"................",
"################"};
