/* XPM */
static const char *align_to_top_16_xpm[]={
"16 15 4 1",
"# c #000000",
"a c #0000ff",
"d c #ffffff",
". c None",
"################",
"................",
".#######..#####.",
".#ddddd#..#ddd#.",
".#ddddd#..#ddd#.",
".#ddddd#..#ddd#.",
".#ddddd#..#####.",
".#ddddd#........",
".#######....a...",
"...........aaa..",
"....a.......a...",
"...aaa......a...",
"....a.......a...",
"....a.......a...",
"....a.......a..."};
