/* XPM */
static const char *align_to_right_16_xpm[]={
"16 15 4 1",
"# c #000000",
"a c #0000ff",
"d c #ffffff",
". c None",
"...............#",
"......########.#",
"......#dddddd#.#",
"...a..#dddddd#.#",
"aaaaa.#dddddd#.#",
"...a..#dddddd#.#",
"......#dddddd#.#",
"......########.#",
"...............#",
".........#####.#",
"......a..#ddd#.#",
"aaaaaaaa.#ddd#.#",
"......a..#ddd#.#",
".........#####.#",
"...............#"};
