/* XPM */
static const char *distribute_right_16_xpm[]={
"16 16 4 1",
". c None",
"a c #000000",
"# c #0000ff",
"b c #ffffff",
".............##.",
".............##.",
".............##.",
".............##.",
".............##.",
".aaaaa.aaaaa.##.",
".abbba.abbba.##.",
".abbba.abbba.##.",
".abbba.abbba.##.",
".abbba.abbba.##.",
".aaaaa.aaaaa.##.",
".............##.",
".............##.",
".............##.",
".............##.",
".............##."};
