/* XPM */
static const char *distribute_top_16_xpm[]={
"16 16 4 1",
". c None",
"a c #000000",
"# c #0000ff",
"b c #ffffff",
"................",
"################",
"################",
"................",
".....aaaaaa.....",
".....abbbba.....",
".....abbbba.....",
".....abbbba.....",
".....aaaaaa.....",
"................",
".....aaaaaa.....",
".....abbbba.....",
".....abbbba.....",
".....abbbba.....",
".....aaaaaa.....",
"................"};
