/* XPM */
static const char *distribute_bottom_16_xpm[]={
"16 16 4 1",
". c None",
"# c #000000",
"b c #0000ff",
"a c #ffffff",
"................",
".....######.....",
".....#aaaa#.....",
".....#aaaa#.....",
".....#aaaa#.....",
".....######.....",
"................",
".....######.....",
".....#aaaa#.....",
".....#aaaa#.....",
".....#aaaa#.....",
".....######.....",
"................",
"bbbbbbbbbbbbbbbb",
"bbbbbbbbbbbbbbbb",
"................"};
