/* XPM */
static const char *select_tool_16_xpm[]={
"16 15 5 1",
". c None",
"a c #5f5e5b",
"# c #828180",
"c c #cbcac9",
"b c #ffffff",
".....#..........",
".....#a.........",
".....#ba........",
".....#bba.......",
".....#bbba......",
".....#bbbba.....",
".....#bbbbba....",
".....#bbbbbba...",
".....#bbbca#....",
".....#baaba.....",
".....##.aba.....",
".........aba....",
".........aba....",
".........#a#....",
"................"};
