/* XPM */
static const char *spread_vert_16_xpm[]={
"16 16 5 1",
". c None",
"a c #000000",
"c c #0000ff",
"b c #ff0000",
"# c #ffffff",
"a##a.......a##a.",
"aaaa.......aaaa.",
".......b........",
"......bbb.......",
".....b.b.b.cccc.",
".......b...c##c.",
"cccc...b...cccc.",
"c##c...b........",
"cccc...b........",
".......b...cccc.",
"cccc...b...c##c.",
"c##c.b.b.b.cccc.",
"cccc..bbb.......",
".......b........",
"aaaa.......aaaa.",
"a##a.......a##a."};
