/* XPM */
static const char *spread_horz_16_xpm[]={
"16 16 5 1",
". c None",
"# c #000000",
"a c #0000ff",
"c c #ff0000",
"b c #ffffff",
"................",
"##.aaa.aaa....##",
"b#.aba.aba....#b",
"b#.aba.aba....#b",
"##.aaa.aaa....##",
"................",
"....c......c....",
"...c........c...",
"..cccccccccccc..",
"...c........c...",
"....c......c....",
"................",
"##..aaa..aaa..##",
"b#..aba..aba..#b",
"b#..aba..aba..#b",
"##..aaa..aaa..##"};
