#define circle_width  16
#define circle_height 16

static const unsigned char
circle_bits[] = {
  0x00, 0x00, 0x04, 0x00, 0x0a, 0x00, 0x04, 0x00,
  0xc0, 0x07, 0x20, 0x08, 0x10, 0x10, 0x08, 0x20,
  0x08, 0x20, 0x08, 0x20, 0x08, 0x20, 0x08, 0x20,
  0x10, 0x10, 0x20, 0x08, 0xc0, 0x07, 0x00, 0x00,
};
