#define circlemask_width  16
#define circlemask_height 16

static const unsigned char
circlemask_bits[] = {
  0x00, 0x00, 0x04, 0x00, 0x0e, 0x00, 0x04, 0x00,
  0xc0, 0x07, 0x60, 0x0d, 0xb0, 0x1a, 0x58, 0x35,
  0xa8, 0x2a, 0x58, 0x35, 0xa8, 0x2a, 0x58, 0x35,
  0xb0, 0x1a, 0x60, 0x0d, 0xc0, 0x07, 0x00, 0x00,
};
