#define rectmask_width  16
#define rectmask_height 16

static const unsigned char
rectmask_bits[] = {
  0x00, 0x00, 0x04, 0x00, 0x0e, 0x00, 0x04, 0x00,
  0xf8, 0x7f, 0xa8, 0x6a, 0x58, 0x55, 0xa8, 0x6a,
  0x58, 0x55, 0xa8, 0x6a, 0x58, 0x55, 0xa8, 0x6a,
  0x58, 0x55, 0xa8, 0x6a, 0xf8, 0x7f, 0x00, 0x00,
};
