#define rect_width  16
#define rect_height 16

static const unsigned char
rect_bits[] = {
  0x00, 0x00, 0x04, 0x00, 0x0a, 0x00, 0x04, 0x00,
  0xf8, 0x7f, 0x08, 0x40, 0x08, 0x40, 0x08, 0x40,
  0x08, 0x40, 0x08, 0x40, 0x08, 0x40, 0x08, 0x40,
  0x08, 0x40, 0x08, 0x40, 0xf8, 0x7f, 0x00, 0x00,
};
