#define select_width  16
#define select_height 16

static const unsigned char
select_bits[] = {
  0x02, 0x00, 0x05, 0x00, 0x02, 0x00, 0x38, 0x00,
  0xc8, 0x01, 0x08, 0x0e, 0x10, 0x38, 0x10, 0x0c,
  0x10, 0x02, 0x20, 0x05, 0xa0, 0x0a, 0xe0, 0x14,
  0x40, 0x28, 0x40, 0x50, 0x00, 0x20, 0x00, 0x00,
};
