#define selectmask_width  16
#define selectmask_height 16

static const unsigned char
selectmask_bits[] = {
  0x02, 0x00, 0x07, 0x00, 0x02, 0x00, 0x38, 0x00,
  0xf8, 0x01, 0xf8, 0x0f, 0xf0, 0x3f, 0xf0, 0x0f,
  0xf0, 0x03, 0xe0, 0x07, 0xe0, 0x0e, 0xe0, 0x1c,
  0x40, 0x38, 0x40, 0x70, 0x00, 0x20, 0x00, 0x00,
};
