#define slice_width  16
#define slice_height 16

static const unsigned char
slice_bits[] = {
  0x00, 0x84, 0x00, 0x44, 0x00, 0x02, 0x00, 0x12,
  0x00, 0x09, 0x00, 0xc1, 0x8e, 0x32, 0xd1, 0x0d,
  0x51, 0x03, 0xf1, 0x00, 0x7e, 0x00, 0xe0, 0x01,
  0x28, 0x02, 0x24, 0x02, 0x20, 0x02, 0xc1, 0x01,
};
