#define slicemask_width  16
#define slicemask_height 16

static const unsigned char
slicemask_bits[] = {
  0x00, 0x84, 0x00, 0x44, 0x00, 0x22, 0x00, 0x12,
  0x00, 0x09, 0x00, 0xc5, 0x8e, 0x32, 0xdf, 0x0d,
  0xd3, 0x03, 0xf3, 0x00, 0x7e, 0x00, 0xf0, 0x01,
  0xe8, 0x03, 0x64, 0x02, 0x62, 0x02, 0xc1, 0x01,
};
