#define starmask_width  16
#define starmask_height 16

static const unsigned char
starmask_bits[] = {
  0x00, 0x00, 0x04, 0x00, 0x0e, 0x00, 0x04, 0x00,
  0x00, 0x01, 0x80, 0x03, 0x80, 0x02, 0x40, 0x05,
  0xf8, 0x3a, 0x50, 0x15, 0xa0, 0x0a, 0x40, 0x05,
  0xa0, 0x0b, 0xe0, 0x0e, 0x70, 0x1c, 0x10, 0x10,
};
