#define star_width  16
#define star_height 16

static const unsigned char
star_bits[] = {
  0x00, 0x00, 0x04, 0x00, 0x0a, 0x00, 0x04, 0x00,
  0x00, 0x01, 0x80, 0x02, 0x80, 0x02, 0x40, 0x04,
  0x78, 0x38, 0x10, 0x10, 0x20, 0x08, 0x40, 0x04,
  0x20, 0x09, 0xa0, 0x0a, 0x70, 0x1c, 0x10, 0x10,
};
