#define text_width  16
#define text_height 16

static const unsigned char
text_bits[] = {
  0x00, 0x00, 0x10, 0x04, 0x20, 0x02, 0x42, 0x01,
  0x45, 0x01, 0x42, 0x01, 0x40, 0x01, 0x40, 0x01,
  0x40, 0x01, 0x40, 0x01, 0x40, 0x01, 0x40, 0x01,
  0x40, 0x01, 0x20, 0x02, 0x10, 0x04, 0x00, 0x00,
};
