#define textmask_width  16
#define textmask_height 16

static const unsigned char
textmask_bits[] = {
  0x00, 0x00, 0x10, 0x04, 0x20, 0x02, 0xc2, 0x01,
  0xc7, 0x01, 0xc2, 0x01, 0xc0, 0x01, 0xc0, 0x01,
  0xc0, 0x01, 0xc0, 0x01, 0xc0, 0x01, 0xc0, 0x01,
  0xc0, 0x01, 0x20, 0x02, 0x10, 0x04, 0x00, 0x00,
};
