#define zoom_width  16
#define zoom_height 16

static const unsigned char
zoom_bits[] = {
  0x00, 0x00, 0xe0, 0x03, 0x10, 0x04, 0x08, 0x08,
  0x04, 0x10, 0x04, 0x10, 0x04, 0x10, 0x04, 0x10,
  0x04, 0x10, 0x08, 0x08, 0x10, 0x1c, 0xe0, 0x3b,
  0x00, 0x70, 0x00, 0xe0, 0x00, 0x40, 0x00, 0x00,
};
