#define zoommask_width  16
#define zoommask_height 16

static const unsigned char
zoommask_bits[] = {
  0x00, 0x00, 0xe0, 0x03, 0xb0, 0x06, 0x58, 0x0d,
  0xac, 0x1a, 0x54, 0x15, 0xac, 0x1a, 0x54, 0x15,
  0xac, 0x1a, 0x58, 0x0d, 0xb0, 0x1e, 0xe0, 0x3b,
  0x00, 0x70, 0x00, 0xe0, 0x00, 0x40, 0x00, 0x00,
};
