/* XPM */

static const char *
join_round_data[] = {
  /* width height num_colors chars_per_pixel x_hot y_hot */
  "16 16 5 1 0 0",

  /* colors */
  ". s symbol1 c #000000 m black",
  "# s symbol2 c #555555 m black",
  "a s symbol3 c #aaaaaa m white",
  "b s symbol4 c #444444 m black",
  "  s mask c none",

  /* pixels */
  "                ",
  "                ",
  "                ",
  "      abba      ",
  "     #....#     ",
  "    ........    ",
  "   ..........   ",
  "  ............  ",
  " .............. ",
  ".......  .......",
  " .....    ..... ",
  "  ...      ...  ",
  "   .        .   ",
  "                ",
  "                ",
  "                ",
};
