/* XPM */

static const char *
color_dialog_data[] = {
  /* width height num_colors chars_per_pixel x_hot y_hot */
  "16 16 9 1 0 0",

  /* colors */
  ". s symbol1 c #000000 m black",
  "# s symbol2 c #ffffff m white",
  "a s symbol3 c #ffffff m white",
  "b s symbol4 c #999999 m white",
  "c s symbol5 c #000000 m black",
  "d s symbol6 c #ff0000 m black",
  "e s symbol7 c #00ff00 m black",
  "f s symbol8 c #0000ff m black",
  "  s mask c none",

  /* pixels */
  "                ",
  " .............. ",
  " .############. ",
  " .##dddaaccbaa. ",
  " .##ddda#cbc#a. ",
  " .##dddaacac#a. ",
  " .##aaaaaaaaaa. ",
  " .##eeea#ccc#a. ",
  " .##eeeaacabaa. ",
  " .##eeeaacccaa. ",
  " .##aaaaaaa#a#. ",
  " .a#fffaacccaa. ",
  " .##fffaacac##. ",
  " .##fff##ccc##. ",
  " caaaaaaaaaaaa. ",
  " cccccccccccccc ",
};
