/* XPM */

static const char *
copy_color_data[] = {
  /* width height num_colors chars_per_pixel x_hot y_hot */
  "15 15 6 1 0 0",

  /* colors */
  ". s symbol1 c #000000 m black",
  "# s symbol2 c #ffffff m white",
  "a s symbol3 c #ff0000 m black",
  "b s symbol4 c #4444ff m white",
  "c s symbol5 c #00ff00 m black",
  "  s mask c none",

  /* pixels */
  "               ",
  " ......        ",
  " .cccc.        ",
  " .cccc.        ",
  " .cccc.        ",
  " .ccca.        ",
  " .....a        ",
  "       a a     ",
  "        aa.b.b ",
  "       aaa#c#. ",
  "        b#c#cb ",
  "        .c#c#. ",
  "        b#c#cb ",
  "        b.b.b. ",
  "               ",
};
