/* XPM */

static const char *
copy_data[] = {
  /* width height num_colors chars_per_pixel x_hot y_hot */
  "15 15 5 1 0 0",

  /* colors */
  ". s symbol1 c #000000 m black",
  "# s symbol2 c #ffffff m white",
  "a s symbol3 c #ff0000 m black",
  "b s symbol4 c #4444ff m white",
  "  s mask c none",

  /* pixels */
  "               ",
  " ......        ",
  " .####.        ",
  " .####.        ",
  " .####.        ",
  " .###a.        ",
  " .....a        ",
  "       a a     ",
  "        aabbbb ",
  "       aaa###b ",
  "        b####b ",
  "        b####b ",
  "        b####b ",
  "        bbbbbb ",
  "               ",
};
