/* XPM */

static const char *
corner_tl_active_data[] = {
  /* width height num_colors chars_per_pixel x_hot y_hot */
  "11 11 3 1 0 0",

  /* colors */
  ". s symbol1 c #000000 m black",
  "# s symbol2 c #00ff00 m black",
  "  s mask c none",

  /* pixels */
  ".......    ",
  ".####.     ",
  ".###..     ",
  ".####..    ",
  ".#.###..  .",
  "....###....",
  ".  ..###.#.",
  "    ..####.",
  "     ..###.",
  "     .####.",
  "    .......",
};
