/* XPM */

static const char *
CREATE_edit_data[] = {
  /* width height num_colors chars_per_pixel x_hot y_hot */
  "16 8 7 1 0 0",

  /* colors */
  ". s symbol1 c #000000 m black",
  "# s symbol2 c #ffffff m white",
  "a s symbol3 c #ffff00 m white",
  "b s symbol4 c #ffa500 m white",
  "c s symbol5 c #ff0000 m black",
  "d s symbol6 c #666666 m black",
  "  s mask c none",

  /* pixels */
  "ddddddd#########",
  "db b b #    .  d",
  "d bab  #   .#. d",
  "dbaaab #  .#.  d",
  "d bab  # d#.   d",
  "db b b # cd    d",
  "d      #       d",
  "########dddddddd",
};
