/* XPM */

static const char *
flip_y_data[] = {
  /* width height num_colors chars_per_pixel x_hot y_hot */
  "16 16 5 1 0 0",

  /* colors */
  ". s symbol1 c #000000 m black",
  "# s symbol2 c #ffffff m white",
  "a s symbol3 c #ff0000 m black",
  "b s symbol4 c #0000ff m black",
  "  s mask c none",

  /* pixels */
  "        b       ",
  "     ...b...... ",
  "     .#b######. ",
  "     ..b..####. ",
  "   aa   b.####. ",
  "  aa    b.####. ",
  " aaaaaab ...... ",
  "  aa   b   aa   ",
  "   aa   b   aa  ",
  " ...... baaaaaa ",
  " .####.b    aa  ",
  " .####.b   aa   ",
  " .####..b..     ",
  " .######b#.     ",
  " ......b...     ",
  "       b        ",
};
