/* XPM */

static const char *
flip_x_data[] = {
  /* width height num_colors chars_per_pixel x_hot y_hot */
  "16 16 5 1 0 0",

  /* colors */
  ". s symbol1 c #000000 m black",
  "# s symbol2 c #ffffff m white",
  "a s symbol3 c #ff0000 m black",
  "b s symbol4 c #0000ff m black",
  "  s mask c none",

  /* pixels */
  "                ",
  " ......  a      ",
  " .####. aaa     ",
  " .####.aaaaa    ",
  " .####.a a a    ",
  " .####.  a  ... ",
  " .#....  a  .#. ",
  "bb#.bb  bb  bb. ",
  " .bb  bb  bb.#bb",
  " .#.  a  ....#. ",
  " ...  a  .####. ",
  "    a a a.####. ",
  "    aaaaa.####. ",
  "     aaa .####. ",
  "      a  ...... ",
  "                ",
};
