/* XPM */

static const char *
plus_data[] = {
  /* width height num_colors chars_per_pixel x_hot y_hot */
  "16 16 5 1 0 0",

  /* colors */
  ". s symbol1 c #000000 m black",
  "# s symbol2 c #000000 m black",
  "a s symbol3 c #7f7f7f m black",
  "b s symbol4 c #cccccc m white",
  "  s mask c none",

  /* pixels */
  "                ",
  "      bbbb      ",
  "      b##a      ",
  "      b..a      ",
  "      b..a      ",
  "      b..a      ",
  " bbbbbb##abbbbb ",
  " a############a ",
  " a############a ",
  " aaaaaa##aaaaaa ",
  "      a..a      ",
  "      a..a      ",
  "      a..a      ",
  "      a..a      ",
  "      aaaa      ",
  "                ",
};
