/* XPM */

static const char *
lgradient_data[] = {
  /* width height num_colors chars_per_pixel x_hot y_hot */
  "16 16 14 1 0 0",

  /* colors */
  ". s symbol1 c #000000 m black",
  "# s symbol2 c #333333 m black",
  "a s symbol3 c #444444 m black",
  "b s symbol4 c #555555 m black",
  "c s symbol5 c #666666 m black",
  "d s symbol6 c #777777 m black",
  "e s symbol7 c #888888 m white",
  "f s symbol8 c #999999 m white",
  "g s symbol9 c #aaaaaa m white",
  "h s symbol10 c #bbbbbb m white",
  "i s symbol11 c #cccccc m white",
  "j s symbol12 c #dddddd m white",
  "k s symbol13 c #eeeeee m white",
  "  s mask c none",

  /* pixels */
  "                ",
  " .............. ",
  " .#abcdefghijk. ",
  " .#abcdefghijk. ",
  " .#abcdefghijk. ",
  " .#abcdefghijk. ",
  " .#abcdefghijk. ",
  " .#abcdefghijk. ",
  " .#abcdefghijk. ",
  " .#abcdefghijk. ",
  " .#abcdefghijk. ",
  " .#abcdefghijk. ",
  " .#abcdefghijk. ",
  " .#abcdefghijk. ",
  " .............. ",
  "                ",
};
