/* XPM */

static const char *
offset_path_data[] = {
  /* width height num_colors chars_per_pixel x_hot y_hot */
  "16 16 4 1 0 0",

  /* colors */
  ". s symbol1 c #ff0000 m black",
  "# s symbol2 c #0000ff m black",
  "a s symbol3 c #666666 m black",
  "  s mask c none",

  /* pixels */
  "                ",
  " aaaaaaaaaaaaaaa",
  " a.             ",
  " a . .          ",
  " a  ..          ",
  " a ...          ",
  " a    ##########",
  " a    #         ",
  " a    #         ",
  " a    #         ",
  " a    #         ",
  " a    #         ",
  " a    #         ",
  " a    #         ",
  " a    #         ",
  " a    #         ",
};
