/* XPM */

static const char *
pan_data[] = {
  /* width height num_colors chars_per_pixel x_hot y_hot */
  "16 16 5 1 0 0",

  /* colors */
  ". s symbol1 c #000000 m black",
  "# s symbol2 c #aaaaaa m white",
  "a s symbol3 c #444444 m black",
  "b s symbol4 c #ffffff m white",
  "  s mask c none",

  /* pixels */
  "                ",
  "     .a.        ",
  "   ..b.b..      ",
  "  ab.b.b.b.     ",
  "  ab.b.b.b.     ",
  "  .b.b.b.b..    ",
  "  .b.b.b.b.b.   ",
  "  .bbb.bbb.b.   ",
  "  .bbbbbbbbb.   ",
  "  .bbbbbbbbb.   ",
  "  .bbbbbbbbb.   ",
  "   .bbbbbbb.    ",
  "   .bbbbbb.     ",
  "    .bbbb.      ",
  "    ......      ",
  "    .####.      ",
};
