/* XPM */

static const char *
rcenter_data[] = {
  /* width height num_colors chars_per_pixel x_hot y_hot */
  "13 13 2 1 0 0",

  /* colors */
  ". s symbol1 c #444444 m black",
  "  s mask c none",

  /* pixels */
  " . ..        ",
  " ..  .    ...",
  " ... . .  .. ",
  "     . .  . .",
  "     . .    .",
  "  .... ..... ",
  "             ",
  " ..... ....  ",
  ".    . .     ",
  ". .  . .     ",
  " ..  . . ... ",
  "...    .  .. ",
  "        .. . ",
};
