/* XPM */

static const char *
rotate_bl_active_data[] = {
  /* width height num_colors chars_per_pixel x_hot y_hot */
  "13 13 3 1 0 0",

  /* colors */
  ". s symbol1 c #000000 m black",
  "# s symbol2 c #00ff00 m black",
  "  s mask c none",

  /* pixels */
  "    .        ",
  "   ...       ",
  "  ..#..      ",
  " ..###..     ",
  "....#..      ",
  "  ..#..  .   ",
  "  ..##.....  ",
  "   ..##..#.. ",
  "    ..#####..",
  "     ....#.. ",
  "       ....  ",
  "        ..   ",
  "        .    ",
};
