/* XPM */

static const char *
rotate_tr_data[] = {
  /* width height num_colors chars_per_pixel x_hot y_hot */
  "13 13 3 1 0 0",

  /* colors */
  ". s symbol1 c #ffffff m white",
  "# s symbol2 c #444444 m black",
  "  s mask c none",

  /* pixels */
  "    #        ",
  "   ##        ",
  "  ####       ",
  " ##.####     ",
  "##.....##    ",
  " ##.##..##   ",
  "  #####..##  ",
  "   #  ##.##  ",
  "      ##.####",
  "     ##...## ",
  "      ##.##  ",
  "       ###   ",
  "        #    ",
};
