/* XPM */

static const char *
side_lr_data[] = {
  /* width height num_colors chars_per_pixel x_hot y_hot */
  "13 9 3 1 0 0",

  /* colors */
  ". s symbol1 c #ffffff m white",
  "# s symbol2 c #444444 m black",
  "  s mask c none",

  /* pixels */
  "    #   #    ",
  "   ##   ##   ",
  "  #########  ",
  " ##.......## ",
  "##.........##",
  " ##.......## ",
  "  #########  ",
  "   ##   ##   ",
  "    #   #    ",
};
