/* XPM */

static const char *
slice_data[] = {
  /* width height num_colors chars_per_pixel x_hot y_hot */
  "16 16 6 1 0 0",

  /* colors */
  ". s symbol1 c #000000 m black",
  "# s symbol2 c #ffffff m white",
  "a s symbol3 c #0000ff m black",
  "b s symbol4 c #ff0000 m black",
  "c s symbol5 c #666666 m black",
  "  s mask c none",

  /* pixels */
  "           c   b",
  "          .   b ",
  "   aaaaaa.aaab  ",
  "   a####c.##ba  ",
  "   a####.c#b#a c",
  "   a###c.#b##a. ",
  " ...###.cb#c..  ",
  ".c c.#..bc..ca  ",
  ".  a.c.b..c##a  ",
  ".c c....c####a  ",
  " ...c..c#####a  ",
  "   abc...####a  ",
  "   ba.cac.aaaa  ",
  "  b  .   .      ",
  " b   .c c.      ",
  "b     ...       ",
};
