/* XPM */

static const char *
star_data[] = {
  /* width height num_colors chars_per_pixel x_hot y_hot */
  "16 16 4 1 0 0",

  /* colors */
  ". s symbol1 c #000000 m black",
  "# s symbol2 c #ffffff m white",
  "a s symbol3 c #444444 m black",
  "  s mask c none",

  /* pixels */
  "       aa       ",
  "       ..       ",
  "      a##a      ",
  "      .##.      ",
  "     .####.     ",
  ".....######.....",
  " .############. ",
  "  .##########.  ",
  "   .########.   ",
  "    .######.    ",
  "    .######.    ",
  "   a########a   ",
  "   .###..###.   ",
  "  .##..  ..##.  ",
  "  ...      ...  ",
  " a.          .a ",
};
