/* XPM */

static const char *
unlock_data[] = {
  /* width height num_colors chars_per_pixel x_hot y_hot */
  "16 16 109 2 0 0",

  /* colors */
  ".. s symbol1 c #a1a1a1 m white",
  "#. s symbol2 c #a1a1a1 m white",
  "a. s symbol3 c #a1a1a1 m white",
  "b. s symbol4 c #a1a1a1 m white",
  "c. s symbol5 c #a1a1a1 m white",
  "d. s symbol6 c #9a9a9a m white",
  "e. s symbol7 c #b8b8b8 m white",
  "f. s symbol8 c #e2e2e2 m white",
  "g. s symbol9 c #f2f2f2 m white",
  "h. s symbol10 c #e1e1e1 m white",
  "i. s symbol11 c #b5b5b5 m white",
  "j. s symbol12 c #909090 m white",
  "k. s symbol13 c #909090 m white",
  "l. s symbol14 c #b1b1b1 m white",
  "m. s symbol15 c #e0e0e0 m white",
  "n. s symbol16 c #a5a5a5 m white",
  "o. s symbol17 c #929292 m white",
  "p. s symbol18 c #a8a8a8 m white",
  "q. s symbol19 c #aeaeae m white",
  "r. s symbol20 c #838383 m white",
  "s. s symbol21 c #d8d8d8 m white",
  "t. s symbol22 c #9f9f9f m white",
  "u. s symbol23 c #838383 m white",
  "v. s symbol24 c #d6d6d6 m white",
  "w. s symbol25 c #838383 m white",
  "x. s symbol26 c #7b7b7b m black",
  "y. s symbol27 c #7c7c7c m black",
  "z. s symbol28 c #797979 m black",
  "A. s symbol29 c #d7d7d7 m white",
  "B. s symbol30 c #777777 m black",
  "C. s symbol31 c #717171 m black",
  "D. s symbol32 c #cdcdcd m white",
  "E. s symbol33 c #696969 m black",
  "F. s symbol34 c #bd7f04 m black",
  "G. s symbol35 c #bd7f04 m black",
  "H. s symbol36 c #c18713 m black",
  "I. s symbol37 c #e3c577 m white",
  "J. s symbol38 c #efdb9e m white",
  "K. s symbol39 c #f8edbf m white",
  "L. s symbol40 c #fdf5d1 m white",
  "M. s symbol41 c #fdf7d7 m white",
  "N. s symbol42 c #fbeeaf m white",
  "O. s symbol43 c #f7e7a5 m white",
  "P. s symbol44 c #eed78c m white",
  "Q. s symbol45 c #e3c36d m white",
  "R. s symbol46 c #e1bb47 m white",
  "S. s symbol47 c #eccf64 m white",
  "T. s symbol48 c #f5df82 m white",
  "U. s symbol49 c #f9e998 m white",
  "V. s symbol50 c #faeca6 m white",
  "W. s symbol51 c #f5d84c m white",
  "X. s symbol52 c #f2d348 m white",
  "Y. s symbol53 c #eac63c m white",
  "Z. s symbol54 c #dfb630 m white",
  "0. s symbol55 c #e0ba45 m white",
  "1. s symbol56 c #ebce61 m white",
  "2. s symbol57 c #f5df80 m white",
  "3. s symbol58 c #f9e896 m white",
  "4. s symbol59 c #faeba3 m white",
  "5. s symbol60 c #f3d749 m white",
  "6. s symbol61 c #f1d245 m white",
  "7. s symbol62 c #e9c53b m white",
  "8. s symbol63 c #dfb52e m white",
  "9. s symbol64 c #dfb943 m white",
  ".# s symbol65 c #eacc60 m white",
  "## s symbol66 c #f3dd7d m white",
  "a# s symbol67 c #eacc6c m white",
  "b# s symbol68 c #d7a536 m white",
  "c# s symbol69 c #f3d545 m white",
  "d# s symbol70 c #f0d041 m white",
  "e# s symbol71 c #e8c338 m white",
  "f# s symbol72 c #deb32c m white",
  "g# s symbol73 c #dfb841 m white",
  "h# s symbol74 c #eacb5e m white",
  "i# s symbol75 c #f3dc7c m white",
  "j# s symbol76 c #d39e28 m white",
  "k# s symbol77 c #c88706 m black",
  "l# s symbol78 c #f3d241 m white",
  "m# s symbol79 c #f0cd3e m white",
  "n# s symbol80 c #e8c134 m white",
  "o# s symbol81 c #deb22a m white",
  "p# s symbol82 c #dfb740 m white",
  "q# s symbol83 c #eaca5c m white",
  "r# s symbol84 c #f3da79 m white",
  "s# s symbol85 c #efd276 m white",
  "t# s symbol86 c #d29b26 m white",
  "u# s symbol87 c #f2d03e m white",
  "v# s symbol88 c #efcb3b m white",
  "w# s symbol89 c #e7bf32 m white",
  "x# s symbol90 c #deb128 m white",
  "y# s symbol91 c #dfb63e m white",
  "z# s symbol92 c #eac959 m white",
  "A# s symbol93 c #f3da78 m white",
  "B# s symbol94 c #f7e38e m white",
  "C# s symbol95 c #f8e79d m white",
  "D# s symbol96 c #f1cf3b m white",
  "E# s symbol97 c #eeca38 m white",
  "F# s symbol98 c #e6bf30 m white",
  "G# s symbol99 c #ddb026 m white",
  "H# s symbol100 c #deb53c m white",
  "I# s symbol101 c #e9c859 m white",
  "J# s symbol102 c #f2d876 m white",
  "K# s symbol103 c #f6e28d m white",
  "L# s symbol104 c #f8e69c m white",
  "M# s symbol105 c #f0cd38 m white",
  "N# s symbol106 c #edc836 m white",
  "O# s symbol107 c #e6bd2e m white",
  "P# s symbol108 c #dcaf24 m white",
  "  s mask c none",

  /* pixels */
  "                  ..#.a.b.c.    ",
  "                d.e.f.g.h.i.d.  ",
  "              k.l.m.n.o.p.h.q.j.",
  "              r.s.t.u.  u.t.v.w.",
  "              x.v.y.      z.A.B.",
  "              C.D.E.      E.E.E.",
  "F.G.G.G.G.G.G.G.G.G.F.          ",
  "H.I.J.K.L.M.N.O.P.Q.G.          ",
  "H.R.S.T.U.V.W.X.Y.Z.G.          ",
  "H.0.1.2.3.4.5.6.7.8.G.          ",
  "H.9..###a#b#c#d#e#f#G.          ",
  "H.g#h#i#j#k#l#m#n#o#G.          ",
  "H.p#q#r#s#t#u#v#w#x#G.          ",
  "H.y#z#A#B#C#D#E#F#G#G.          ",
  "H.H#I#J#K#L#M#N#O#P#G.          ",
  "F.G.G.G.G.G.G.G.G.G.F.          ",
};
