/* XPM */

static const char *
zoom_fit_data[] = {
  /* width height num_colors chars_per_pixel x_hot y_hot */
  "16 16 6 1 0 0",

  /* colors */
  ". s symbol1 c #000000 m black",
  "# s symbol2 c #aaaaaa m white",
  "a s symbol3 c #444444 m black",
  "b s symbol4 c #0000ff m black",
  "c s symbol5 c #ffffff m white",
  "  s mask c none",

  /* pixels */
  "  #a...a#       ",
  " #a     a#      ",
  "#abbbbbbba#bbbb ",
  "a bcccccccacccb ",
  ". bccbcccc.cccb ",
  ". bcbbbccc.cccb ",
  ". bccbcccc.cccb ",
  "a bcccccccacccb ",
  "#abccccccaccccb ",
  " #accccca.ccccb ",
  "  #a...a.a.cccb ",
  "  bcccccc.a.ccb ",
  "  bccccccc.a.cb ",
  "  bbbbbbbbb.a.b ",
  "            .a. ",
  "             .  ",
};
