<?xml version="1.0" encoding="UTF-8" standalone="no"?>
<!-- Created with Inkscape (http://www.inkscape.org/) -->

<svg
   xmlns:dc="http://purl.org/dc/elements/1.1/"
   xmlns:cc="http://creativecommons.org/ns#"
   xmlns:rdf="http://www.w3.org/1999/02/22-rdf-syntax-ns#"
   xmlns:svg="http://www.w3.org/2000/svg"
   xmlns="http://www.w3.org/2000/svg"
   xmlns:sodipodi="http://sodipodi.sourceforge.net/DTD/sodipodi-0.dtd"
   xmlns:inkscape="http://www.inkscape.org/namespaces/inkscape"
   width="450.52805"
   height="446.48743"
   id="svg2"
   version="1.1"
   inkscape:version="0.91 r"
   sodipodi:docname="delete.svg">
  <defs
     id="defs4" />
  <sodipodi:namedview
     id="base"
     pagecolor="#ffffff"
     bordercolor="#666666"
     borderopacity="1.0"
     inkscape:pageopacity="0.0"
     inkscape:pageshadow="2"
     inkscape:zoom="1.4142136"
     inkscape:cx="277.42676"
     inkscape:cy="223.24371"
     inkscape:document-units="px"
     inkscape:current-layer="layer1"
     showgrid="false"
     inkscape:window-width="1916"
     inkscape:window-height="1372"
     inkscape:window-x="170"
     inkscape:window-y="375"
     inkscape:window-maximized="0"
     fit-margin-top="0"
     fit-margin-left="0"
     fit-margin-right="0"
     fit-margin-bottom="0" />
  <metadata
     id="metadata7">
    <rdf:RDF>
      <cc:Work
         rdf:about="">
        <dc:format>image/svg+xml</dc:format>
        <dc:type
           rdf:resource="http://purl.org/dc/dcmitype/StillImage" />
        <dc:title />
      </cc:Work>
    </rdf:RDF>
  </metadata>
  <g
     inkscape:label="Layer 1"
     inkscape:groupmode="layer"
     id="layer1"
     transform="translate(4.7866896,7.5336323)">
    <g
       id="g4145">
      <rect
         transform="translate(15.416361,13.154129)"
         y="-20.687761"
         x="-20.203051"
         height="446.48743"
         width="450.52805"
         id="rect2988"
         style="fill:none;stroke:none" />
      <path
         sodipodi:nodetypes="cscscccsc"
         inkscape:connector-curvature="0"
         id="path4141"
         d="m 24.911794,125.7055 c 0,0 35.646309,-27.901407 55.861434,-48.790367 21.213202,-21.92031 37.476662,-55.861435 37.476662,-55.861435 0,0 92.63098,140.007142 116.67261,170.412732 24.04163,30.40559 181.72644,197.98989 181.72644,197.98989 l -27.93072,5.3033 -9.54594,18.03123 c 0,0 -107.48023,-115.96551 -167.5843,-168.99852 C 151.4839,190.75932 24.911794,125.7055 24.911794,125.7055 Z"
         style="fill:#ff0000;fill-opacity:1;fill-rule:evenodd;stroke:none;stroke-width:1px;stroke-linecap:butt;stroke-linejoin:miter;stroke-opacity:1" />
      <path
         sodipodi:nodetypes="csscccsccc"
         inkscape:connector-curvature="0"
         id="path4143"
         d="m 36.225502,391.57764 c 0,0 67.175138,-40.30508 125.865008,-97.58073 C 220.78037,236.72126 311.76866,112.80903 321.89663,88.935948 341.69563,42.2669 360.0804,15.396844 360.0804,15.396844 l 20.15254,46.315493 34.29468,26.516503 c 0,0 -162.52867,176.28984 -198.697,212.83914 -68.67401,69.39738 -104.6518,125.1579 -104.6518,125.1579 L 77.944802,399.70937 Z"
         style="fill:#ff0000;fill-opacity:1;fill-rule:evenodd;stroke:none;stroke-width:1px;stroke-linecap:butt;stroke-linejoin:miter;stroke-opacity:1" />
    </g>
  </g>
</svg>
