<?xml version="1.0" encoding="UTF-8" standalone="no"?>
<svg xmlns:dc="http://purl.org/dc/elements/1.1/" xmlns:cc="http://creativecommons.org/ns#" xmlns:rdf="http://www.w3.org/1999/02/22-rdf-syntax-ns#" xmlns:svg="http://www.w3.org/2000/svg" xmlns="http://www.w3.org/2000/svg" xmlns:sodipodi="http://sodipodi.sourceforge.net/DTD/sodipodi-0.dtd" xmlns:inkscape="http://www.inkscape.org/namespaces/inkscape" viewBox="0 -256 1792 1792" id="svg3447" version="1.1" inkscape:version="0.48.3.1 r9886" width="100%" height="100%" sodipodi:docname="undo_font_awesome.svg" hola_ext_inject="disabled">
  <metadata id="metadata3457">
    <rdf:RDF>
      <cc:Work rdf:about="">
        <dc:format>image/svg+xml</dc:format>
        <dc:type rdf:resource="http://purl.org/dc/dcmitype/StillImage"/>
      </cc:Work>
    </rdf:RDF>
  </metadata>
  <defs id="defs3455"/>
  <sodipodi:namedview pagecolor="#ffffff" bordercolor="#666666" borderopacity="1" objecttolerance="10" gridtolerance="10" guidetolerance="10" inkscape:pageopacity="0" inkscape:pageshadow="2" inkscape:window-width="640" inkscape:window-height="480" id="namedview3453" showgrid="false" inkscape:zoom="0.13169643" inkscape:cx="896" inkscape:cy="896" inkscape:window-x="0" inkscape:window-y="25" inkscape:window-maximized="0" inkscape:current-layer="svg3447"/>
  <g transform="matrix(1,0,0,-1,113.89831,1262.6441)" id="g3449">
    <path d="M 1536,640 Q 1536,484 1475,342 1414,200 1311,97 1208,-6 1066,-67 924,-128 768,-128 589,-128 431.5,-52 274,24 165.5,161 57,298 18,473 q -3,14 7,27 9,12 25,12 h 199 q 23,0 30,-23 Q 329,327 464,227.5 599,128 768,128 872,128 966.5,168.5 1061,209 1130,278 q 69,69 109.5,163.5 40.5,94.5 40.5,198.5 0,104 -40.5,198.5 Q 1199,933 1130,1002 1061,1071 966.5,1111.5 872,1152 768,1152 670,1152 580,1116.5 490,1081 420,1015 L 557,877 q 31,-30 14,-69 -17,-40 -59,-40 H 64 Q 38,768 19,787 0,806 0,832 v 448 q 0,42 40,59 39,17 69,-14 l 130,-129 q 107,101 244.5,156.5 137.5,55.5 284.5,55.5 156,0 298,-61 142,-61 245,-164 103,-103 164,-245 61,-142 61,-298 z" id="path3451" inkscape:connector-curvature="0" style="fill:currentColor"/>
  </g>
</svg>